<svg xmlns="http://www.w3.org/2000/svg" viewBox="0 0 317 317.26"><defs><style>.cls-1{fill:#fdfefe;}.cls-2{fill:#cae4f7;}.cls-3{fill:#fafcfd;}.cls-4{fill:#eaf1f4;}.cls-5{fill:#d6edfc;}.cls-6{fill:#d86d46;}</style></defs><g id="Layer_2" data-name="Layer 2"><g id="Layer_1-2" data-name="Layer 1"><path class="cls-1" d="M151.91.11h-.11l1.56,0Zm68.58,301.52c-5.05-23-21-34.43-42.59-39.82a12.13,12.13,0,0,1-1.82-.8,141.67,141.67,0,0,0-35,0c-9.92,2.95-19.68,6.17-27.85,12.93s-13.77,15-16,25.24a13.42,13.42,0,0,1-.54,1.94l-1,3.54a159.12,159.12,0,0,0,127-1.26C221.5,303.74,220.86,303.29,220.49,301.63Z"/><path class="cls-2" d="M176,247q0,7,.08,14A142.24,142.24,0,0,0,141,261l.06-14A151.52,151.52,0,0,0,176,247Z"/><path class="cls-3" d="M255,183.9c-3.83,2.76-8.25,3.68-12.84,4.08,1.56-13.76.58-27.51.16-41.36-4.24,13.71-10.05,26.2-21.34,35.43,1.14-12.06,1.69-24.1.09-36.2-2.43-18.25-13-29.65-30-34.43-21.57-6.09-43.53-6.43-65.2-.08-11.67,3.42-21.19,9.93-26.35,21.63-3.14,7.13-4,14.64-4.48,22.24-.61,9,.74,17.89,1,26.84-11.26-9.25-17.15-21.7-20.69-35.4a1.36,1.36,0,0,0-1.26,1.63c0,12,0,24,.29,35.93,0,1.9,0,2.81-1.91,3.06-11.24-1.16-18.52-8.78-19-19.88-.08-2,.12-4-.06-6-.95-10.78,2.62-19.19,12.55-24.35l6.74-1.47c2.19.17,3.12-.9,3.78-3,10.48-33.28,35.19-48.85,68-53.34,21.22-2.9,41.9-.12,61.05,10.27,17.18,9.32,28.95,23.19,34.63,42,.64,2.12,1,4.34,4,4,2.14.85,4.4.5,6.61.62.18.28.28.68.54.83,5.1,2.95,10.24,6.16,11.32,12.43,1.47,8.51,1.75,17.17-.39,25.65a12,12,0,0,1-6.22,8Z"/><path class="cls-4" d="M72.51,187.27c1.9-.25,1.95-1.16,1.91-3.06-.29-12-.25-24-.29-35.93a1.36,1.36,0,0,1,1.26-1.63c3.54,13.7,9.43,26.15,20.69,35.4,1.62.86.37,3.13,2,4,2.11,8.84,6.92,16,13.73,21.87,9.88,8.58,21.62,12.63,34.35,14.31,19.47,2.56,38.06.41,54.64-11.1,8.93-6.21,15.69-14.15,18.26-25.07,1.59-.88.36-3.13,2-4,11.29-9.23,17.1-21.72,21.34-35.43.42,13.85,1.4,27.6-.16,41.36-3.41,14-9.34,26.59-20,36.59a77.33,77.33,0,0,1-41.6,20.72c-1.6-.07-3.45-1.09-4.4,1.2a.4.4,0,0,1-.19.53,151.52,151.52,0,0,1-34.91,0,.42.42,0,0,1-.18-.54c-1-2.26-2.8-1.27-4.4-1.19-26.77-4.27-53-23.31-60.35-53.35C75.58,189.58,74.79,188,72.51,187.27Z"/><path class="cls-3" d="M245,102.09c-2.08-1.87-4.86-2.85-6.54-5.25-3.53-5.06-2.49-12.45,2.3-16.1a11.77,11.77,0,0,1,16.11,1.73,11.38,11.38,0,0,1-1.11,16.07c-1.46,1.31-3.16,2.36-4.75,3.53C249,104.57,247,102.9,245,102.09Z"/><path class="cls-3" d="M66.13,102.06c-1.35-1-2.74-1.83-4-2.85a11.66,11.66,0,0,1-1.22-17.52c4.41-4.55,12.7-4.35,17,.42a11.53,11.53,0,0,1-1.71,17.11c-1.3,1-2.69,1.91-4,2.86Z"/><path class="cls-2" d="M66.13,102.06l6,0c.09,9.37.16,18.75.28,28.12,0,1.8.26,3.6.39,5.4L66,137.06Q66.07,119.56,66.13,102.06Z"/><path class="cls-2" d="M245,102.09c2,.81,4,2.48,6,0,.3,11.35.44,22.7-.08,34-2.21-.12-4.47.23-6.61-.62,1.06-9.3.16-18.62.48-27.93C244.82,105.74,244.89,103.91,245,102.09Z"/><path class="cls-2" d="M136.51,245.29c1.6-.08,3.44-1.07,4.4,1.19C139.45,246.08,137.79,246.4,136.51,245.29Z"/><path class="cls-2" d="M176.19,246.49c.95-2.29,2.8-1.27,4.4-1.2C179.31,246.38,177.65,246.05,176.19,246.49Z"/><path class="cls-4" d="M255,183.9l1.13-.86Z"/><path class="cls-5" d="M221,182.05c-1.59.88-.36,3.13-2,4-.44-.63-1.07-.92-1.65-.38-3.8,3.52-8.31,5.89-12.81,8.36a82.52,82.52,0,0,1-32.08,9.78c-8.3.78-16.65,1.59-25.23.46-13.83-1.84-26.8-5.49-39-12.33-3.43-1.93-6-5.32-10.23-5.9-1.61-.87-.36-3.14-2-4-.24-9-1.59-17.86-1-26.84.53-7.6,1.34-15.11,4.48-22.24,5.16-11.7,14.68-18.21,26.35-21.63,21.67-6.35,43.63-6,65.2.08,16.94,4.78,27.52,16.18,30,34.43C222.68,158,222.13,170,221,182.05Zm-84.75-20.39a9.94,9.94,0,0,0-10.06-10.06,10.23,10.23,0,0,0-9.76,10,10.09,10.09,0,0,0,9.72,10A9.72,9.72,0,0,0,136.24,161.66Zm44.64.17a9.59,9.59,0,0,0,9.73,9.79,10,10,0,1,0-.37-20A9.76,9.76,0,0,0,180.88,161.83Z"/><path class="cls-2" d="M98.06,186.05c4.19.58,6.8,4,10.23,5.9,12.18,6.84,25.15,10.49,39,12.33,8.58,1.13,16.93.32,25.23-.46A82.52,82.52,0,0,0,204.58,194c4.5-2.47,9-4.84,12.81-8.36.58-.54,1.21-.25,1.65.38-2.57,10.92-9.33,18.86-18.26,25.07-16.58,11.51-35.17,13.66-54.64,11.1-12.73-1.68-24.47-5.73-34.35-14.31C105,202,100.17,194.89,98.06,186.05Z"/><path class="cls-6" d="M136.24,161.66a9.72,9.72,0,0,1-10.1,10,10.09,10.09,0,0,1-9.72-10,10.23,10.23,0,0,1,9.76-10A9.94,9.94,0,0,1,136.24,161.66Z"/><path class="cls-6" d="M180.88,161.83a9.76,9.76,0,0,1,9.36-10.18,10,10,0,1,1,.37,20A9.59,9.59,0,0,1,180.88,161.83Z"/><path class="cls-6" d="M141,261c-9.91,2.94-19.67,6.16-27.84,12.92s-13.77,15-16,25.24c-.93,4.33-2.21,4.82-6.09,2.93-37.41-18.19-64.42-46.32-79.79-84.94-30.87-77.54,3.22-164.76,78.2-201.34C152-14.61,227.59-.23,275,51.1c68.72,74.42,50.8,193.6-36.74,244.43a159.2,159.2,0,0,1-14.64,7.53c-1.82.82-2.68.61-3.12-1.43-5.06-23-21-34.43-42.59-39.82a11.3,11.3,0,0,1-1.82-.8q0-7-.08-14a.4.4,0,0,0,.19-.53c1.46-.44,3.12-.11,4.4-1.2a77.33,77.33,0,0,0,41.6-20.72c10.64-10,16.57-22.62,20-36.59,4.59-.4,9-1.32,12.84-4.08l1.13-.86a12,12,0,0,0,6.22-8c2.14-8.48,1.86-17.14.39-25.65-1.08-6.27-6.22-9.48-11.32-12.43-.26-.15-.36-.55-.54-.83.52-11.34.38-22.69.08-34,1.59-1.17,3.29-2.22,4.75-3.53a11.38,11.38,0,0,0,1.11-16.07,11.77,11.77,0,0,0-16.11-1.73c-4.79,3.65-5.83,11-2.3,16.1,1.68,2.4,4.46,3.38,6.54,5.25-.07,1.82-.14,3.65-.2,5.47-.32,9.31.58,18.63-.49,27.93-3,.39-3.39-1.83-4-4-5.68-18.82-17.45-32.69-34.63-42-19.15-10.39-39.83-13.17-61.05-10.27-32.83,4.49-57.54,20.06-68,53.34-.66,2.09-1.59,3.16-3.78,3-.13-1.8-.36-3.6-.39-5.4-.12-9.37-.19-18.75-.28-28.12,1.35-1,2.74-1.85,4-2.86a11.53,11.53,0,0,0,1.71-17.11c-4.26-4.77-12.55-5-17-.42A11.66,11.66,0,0,0,62.1,99.21c1.29,1,2.68,1.9,4,2.85l-.11,35c-9.93,5.16-13.5,13.57-12.55,24.35.18,2,0,4,.06,6,.46,11.1,7.74,18.72,19,19.88,2.28.73,3.07,2.31,3.65,4.67,7.33,30,33.58,49.08,60.35,53.35,1.28,1.11,2.94.79,4.4,1.19a.42.42,0,0,0,.18.54Z"/></g></g></svg>