<svg xmlns="http://www.w3.org/2000/svg" viewBox="0 0 232.05 98.57"><defs><style>.cls-1{fill:#d86d46;}.cls-2{fill:#070707;}.cls-3{fill:none;}</style></defs><g id="Layer_2" data-name="Layer 2"><g id="Layer_1-2" data-name="Layer 1"><path class="cls-1" d="M67.09,41.29H58.61l-.09-4.47a10.7,10.7,0,0,1-9.06,4.47c-6.5,0-11.15-4.82-11.15-11.61V10.57H46.5v17.3c0,3.72,2.32,6.28,5.69,6.28a6,6,0,0,0,6.27-5.72v-.09l.06.17V10.57H67Z"/><path class="cls-1" d="M71.61.7h8.48l.09,40.59H71.7Z"/><path class="cls-1" d="M101.72,38.68a11,11,0,0,1-6.91,2.61c-5.29,0-9-3.77-9-9.18V17.42H81.68V10.57h4.13V2.32h8.13v8.25H108.7v6.85H93.94V30.78c0,2,1.28,3.37,2.84,3.37a4.35,4.35,0,0,0,2.91-1Z"/><path class="cls-1" d="M135.4,10.57l.09,30.72H127l-.09-4.47a10.7,10.7,0,0,1-9.06,4.47c-6.5,0-11.15-4.82-11.15-11.61V10.57h8.19v17.3c0,3.72,2.33,6.28,5.69,6.28a6,6,0,0,0,6.28-5.71V10.57Z"/><path class="cls-1" d="M157.11,10.57v7.14c-6.27,0-10.28,3.6-10.28,9.24l.08,14.34h-8.48l-.08-30h8.48v5.57A11.18,11.18,0,0,1,157.11,10.57Z"/><path class="cls-1" d="M181.91,31.13l5.4,5.51c-2.67,2.79-7.84,4.65-12.26,4.65-8.94,0-15.91-6.56-15.91-15.8,0-9.06,6.68-15.62,15.45-15.62,9.41,0,14.92,7.15,14.92,18.47H167.85A7.3,7.3,0,0,0,175,33.8,10.93,10.93,0,0,0,181.91,31.13ZM168,22.24h13.41A6.26,6.26,0,0,0,175,17.36,7.25,7.25,0,0,0,168,22.24Z"/><path class="cls-2" d="M86.23,82.66l4.94-5.87A19.7,19.7,0,0,0,104.29,82c4.3,0,6.51-2,6.51-4.47,0-2.85-2.33-3.72-8.42-5.11C94,70.52,88,68.14,88,60.41,88,53,94,48,102.72,48a23.09,23.09,0,0,1,15.63,5.51l-4.47,6.16a18.49,18.49,0,0,0-11.39-4.41c-3.66,0-5.86,1.91-5.86,4.29,0,2.91,2.38,3.84,8.53,5.23,8.6,1.92,14.29,4.47,14.29,11.85,0,7.61-5.75,12.66-15.51,12.66A25.65,25.65,0,0,1,86.23,82.66Z"/><path class="cls-2" d="M119.45,58.56h8.3l5.7,18.7,5.92-18.7h7l5.92,18.7L158,58.56h8.31l-10.22,30h-7.61L142.9,69.69l-5.63,18.87h-7.61Z"/><path class="cls-2" d="M195,70.64V88.58h-8.18v-3a11.93,11.93,0,0,1-8.82,3.7c-6.39,0-11.33-3.84-11.33-9.59,0-5.92,5.52-10,12.49-10a21.64,21.64,0,0,1,7.67,1.51v-.58c0-3.2-2-6-6.92-6a17.26,17.26,0,0,0-7.78,2.15l-2.84-5.63a27.52,27.52,0,0,1,12.54-3.31C189.66,57.86,195,62.8,195,70.64Zm-8.18,8.47V76.33a18.9,18.9,0,0,0-6.45-1.11c-3.08,0-5.52,1.8-5.52,4.24s2.15,4,5.05,4C183.16,83.41,186.23,81.9,186.82,79.11Z"/><path class="cls-2" d="M232.05,73.54c0,9.23-5.81,15.74-13.82,15.74a12.26,12.26,0,0,1-10-4.94V98.57H199.7v-40h8.48v4.18a12.36,12.36,0,0,1,10-4.88C226.24,57.86,232.05,64.36,232.05,73.54Zm-8.24,0c0-5-3.31-8.54-8-8.54-4.12,0-7.14,3-7.61,7.38V74.7c.47,4.41,3.49,7.43,7.61,7.43C220.5,82.13,223.81,78.59,223.81,73.54Z"/><polyline class="cls-3" points="1.16 35.78 1.17 35.77 6.99 29.96"/><path class="cls-1" d="M29.19,30.35l5.54,5.54a19.77,19.77,0,0,1-12.4,5.37H21.2A21.35,21.35,0,0,1,7,35.77,20.43,20.43,0,0,1,0,20.62C0,9.41,9.76,0,21.2,0A21.23,21.23,0,0,1,35,5.11L29.19,11a12.1,12.1,0,0,0-8-3.17c-6.68,0-12.37,5.92-12.37,12.84a13.16,13.16,0,0,0,4,9.34,12,12,0,0,0,8.41,3.55A12.07,12.07,0,0,0,29.19,30.35Z"/></g></g></svg>